# xmcd
#
# Track frame offsets:
#	150
#	9967
#	24287
#	37500
#	69784
#	87051
#	99594
#	111718
#	127456
#	145252
#	154139
#	164636
#	180428
#	197014
#	208111
#
# Disc length: 2981 seconds
#
# Revision: 1
# Processed by: cddbd v1.5.1PL0 Copyright (c) Steve Scherf et al.
# Submitted via: audiograbber 1.83.01
#
DISCID=c40ba30f
DTITLE=Blue Timers - Blue and Green
DYEAR=1900
DGENRE=Bluegrass
TTITLE0=Sugaloaf mountain special
TTITLE1=All i have to do is dream
TTITLE2=take mack to tulse
TTITLE3=Hotel California
TTITLE4=Irish Jig Medley
TTITLE5=The Soul never dies
TTITLE6=ring of fire
TTITLE7=The wild rover
TTITLE8=i am so lonesome
TTITLE9=klarinette polka
TTITLE10=john henry
TTITLE11=star of the county down
TTITLE12=monti csardas
TTITLE13=the gospel train
TTITLE14=thank god, i am a country box
EXTD=
EXTT0=
EXTT1=
EXTT2=
EXTT3=
EXTT4=
EXTT5=
EXTT6=
EXTT7=
EXTT8=
EXTT9=
EXTT10=
EXTT11=
EXTT12=
EXTT13=
EXTT14=
PLAYORDER=
